<mxfile host="app.diagrams.net" agent="Mozilla/5.0 (Windows NT 10.0; Win64; x64) AppleWebKit/537.36 (KHTML, like Gecko) Chrome/138.0.0.0 Safari/537.36" version="27.2.0">
  <diagram name="Page-1" id="VRUt5HPt8PmTPmGruRRZ">
    <mxGraphModel dx="1206" dy="552" grid="1" gridSize="10" guides="1" tooltips="1" connect="1" arrows="1" fold="1" page="1" pageScale="1" pageWidth="827" pageHeight="1169" math="0" shadow="0">
      <root>
        <mxCell id="0" />
        <mxCell id="1" parent="0" />
        <mxCell id="_IIaCne2BPe6ufigTYPv-1" value="&lt;p style=&quot;margin: 0px; margin-top: 4px; text-align: center; text-decoration: underline;&quot;&gt;Schedule execute&lt;/p&gt;&lt;hr&gt;&lt;p style=&quot;margin: 0px; margin-left: 8px;&quot;&gt;&lt;br&gt;&lt;/p&gt;&lt;p style=&quot;margin: 0px; margin-left: 8px;&quot;&gt;排程執行&lt;/p&gt;" style="verticalAlign=middle;align=center;overflow=fill;fontSize=12;fontFamily=Helvetica;html=1;rounded=1;fontStyle=1;strokeWidth=3;fillColor=#E6FFCC" parent="1" vertex="1">
          <mxGeometry x="670" y="474" width="110" height="90" as="geometry" />
        </mxCell>
        <mxCell id="_IIaCne2BPe6ufigTYPv-2" value="&#xa;&#xa;&#xa;Write registry" style="whiteSpace=wrap;align=center;verticalAlign=middle;fontStyle=1;strokeWidth=3;fillColor=#FFFFCC" parent="1" vertex="1">
          <mxGeometry x="359" y="1389.5" width="101" height="90" as="geometry" />
        </mxCell>
        <mxCell id="_IIaCne2BPe6ufigTYPv-3" value="Kernel logic&#xa;&#xa;靜默寫入 Ignore 註冊表&#xa;Enumberation 清理&#xa;記錄成功或失敗" style="shape=process;whiteSpace=wrap;align=center;verticalAlign=middle;size=0.0475;fontStyle=1;strokeWidth=3;fillColor=#FFCCCC" parent="1" vertex="1">
          <mxGeometry x="512" y="1389" width="400" height="91" as="geometry" />
        </mxCell>
        <mxCell id="_IIaCne2BPe6ufigTYPv-4" value="" style="edgeStyle=none;noEdgeStyle=1;strokeColor=#990000;strokeWidth=2;exitX=0.5;exitY=1;exitDx=0;exitDy=0;" parent="1" source="_IIaCne2BPe6ufigTYPv-12" target="_IIaCne2BPe6ufigTYPv-1" edge="1">
          <mxGeometry width="100" height="100" relative="1" as="geometry">
            <mxPoint x="693" y="437" as="sourcePoint" />
            <mxPoint x="692" y="404" as="targetPoint" />
          </mxGeometry>
        </mxCell>
        <mxCell id="_IIaCne2BPe6ufigTYPv-5" value="" style="edgeStyle=elbowEdgeStyle;elbow=horizontal;strokeColor=#990000;strokeWidth=2;entryX=1;entryY=0.5;entryDx=0;entryDy=0;exitX=0;exitY=0.5;exitDx=0;exitDy=0;" parent="1" source="_IIaCne2BPe6ufigTYPv-3" target="_IIaCne2BPe6ufigTYPv-2" edge="1">
          <mxGeometry width="100" height="100" relative="1" as="geometry">
            <mxPoint x="666" y="1616" as="sourcePoint" />
            <mxPoint x="356" y="1657" as="targetPoint" />
            <Array as="points">
              <mxPoint x="484" y="1426" />
            </Array>
          </mxGeometry>
        </mxCell>
        <mxCell id="_IIaCne2BPe6ufigTYPv-6" value="true" style="text;spacingTop=-5;align=center" parent="1" vertex="1">
          <mxGeometry x="545" y="855" width="30.5" height="17" as="geometry" />
        </mxCell>
        <mxCell id="_IIaCne2BPe6ufigTYPv-7" value="" style="edgeStyle=orthogonalEdgeStyle;rounded=0;orthogonalLoop=1;jettySize=auto;html=1;" parent="1" source="_IIaCne2BPe6ufigTYPv-8" target="_IIaCne2BPe6ufigTYPv-9" edge="1">
          <mxGeometry relative="1" as="geometry" />
        </mxCell>
        <mxCell id="_IIaCne2BPe6ufigTYPv-8" value="&lt;p style=&quot;margin: 0px; margin-top: 4px; text-align: center; text-decoration: underline;&quot;&gt;Load&amp;nbsp;config.json&lt;/p&gt;&lt;hr&gt;&lt;p style=&quot;margin: 0px; margin-left: 8px;&quot;&gt;&lt;br&gt;&lt;/p&gt;&lt;p style=&quot;margin: 0px; margin-left: 8px;&quot;&gt;讀取設定&lt;/p&gt;" style="verticalAlign=middle;align=center;overflow=fill;fontSize=12;fontFamily=Helvetica;html=1;rounded=1;fontStyle=1;strokeWidth=3;fillColor=#E6FFCC;strokeOpacity=100;" parent="1" vertex="1">
          <mxGeometry x="670" y="614" width="110" height="90" as="geometry" />
        </mxCell>
        <mxCell id="_IIaCne2BPe6ufigTYPv-9" value="&lt;p style=&quot;font-weight: 700; text-wrap-mode: nowrap; text-decoration-line: underline; margin: 4px 0px 0px;&quot;&gt;Scan strategy&lt;/p&gt;&lt;hr style=&quot;font-weight: 700; text-wrap-mode: nowrap;&quot;&gt;&lt;p style=&quot;font-weight: 700; text-wrap-mode: nowrap; margin: 0px 0px 0px 8px;&quot;&gt;&lt;br&gt;&lt;/p&gt;&lt;p style=&quot;font-weight: 700; text-wrap-mode: nowrap; margin: 0px 0px 0px 8px;&quot;&gt;掃描策略&lt;/p&gt;" style="rhombus;whiteSpace=wrap;html=1;fillColor=#E6FFCC;strokeColor=#000000;strokeWidth=3;" parent="1" vertex="1">
          <mxGeometry x="660.5" y="752" width="129" height="129" as="geometry" />
        </mxCell>
        <mxCell id="_IIaCne2BPe6ufigTYPv-10" value="" style="edgeStyle=none;noEdgeStyle=1;strokeColor=#990000;strokeWidth=2;exitX=0.5;exitY=1;exitDx=0;exitDy=0;entryX=0.5;entryY=0;entryDx=0;entryDy=0;" parent="1" source="_IIaCne2BPe6ufigTYPv-1" target="_IIaCne2BPe6ufigTYPv-8" edge="1">
          <mxGeometry width="100" height="100" relative="1" as="geometry">
            <mxPoint x="751" y="581" as="sourcePoint" />
            <mxPoint x="751" y="631" as="targetPoint" />
          </mxGeometry>
        </mxCell>
        <mxCell id="_IIaCne2BPe6ufigTYPv-11" value="" style="edgeStyle=none;noEdgeStyle=1;strokeColor=#990000;strokeWidth=2;exitX=0.5;exitY=1;exitDx=0;exitDy=0;entryX=0.5;entryY=0;entryDx=0;entryDy=0;" parent="1" source="_IIaCne2BPe6ufigTYPv-8" target="_IIaCne2BPe6ufigTYPv-9" edge="1">
          <mxGeometry width="100" height="100" relative="1" as="geometry">
            <mxPoint x="749" y="749" as="sourcePoint" />
            <mxPoint x="749" y="799" as="targetPoint" />
          </mxGeometry>
        </mxCell>
        <mxCell id="_IIaCne2BPe6ufigTYPv-12" value="&lt;p style=&quot;margin: 0px; margin-top: 4px; text-align: center; text-decoration: underline;&quot;&gt;&lt;strong&gt;Start&lt;/strong&gt;&lt;/p&gt;&lt;hr&gt;&lt;p style=&quot;margin: 0px 0px 0px 8px;&quot;&gt;&lt;span style=&quot;background-color: transparent; color: light-dark(rgb(0, 0, 0), rgb(255, 255, 255));&quot;&gt;&lt;br&gt;開始&lt;/span&gt;&lt;/p&gt;" style="verticalAlign=middle;align=center;overflow=fill;fontSize=12;fontFamily=Helvetica;html=1;rounded=1;fontStyle=1;strokeWidth=3;fillColor=#dae8fc;strokeColor=#6c8ebf;" parent="1" vertex="1">
          <mxGeometry x="670" y="40" width="110" height="90" as="geometry" />
        </mxCell>
        <mxCell id="_IIaCne2BPe6ufigTYPv-13" value="&lt;h1 style=&quot;margin-top: 0px;&quot;&gt;Condition&lt;/h1&gt;&lt;p style=&quot;&quot;&gt;Enabled = true/false&lt;br&gt;&lt;span style=&quot;background-color: transparent; color: light-dark(rgb(0, 0, 0), rgb(255, 255, 255));&quot;&gt;RTC&lt;/span&gt;&lt;span style=&quot;background-color: transparent; color: light-dark(rgb(0, 0, 0), rgb(255, 255, 255));&quot;&gt;&amp;nbsp;== Set Time&lt;br&gt;&lt;/span&gt;RTC cycle day == Set day&lt;/p&gt;&lt;p&gt;&lt;/p&gt;" style="text;html=1;whiteSpace=wrap;overflow=hidden;rounded=0;align=center;fillColor=none;strokeColor=#0000FF;dashed=1;dashPattern=8 8;" parent="1" vertex="1">
          <mxGeometry x="40" y="357" width="171.9" height="120" as="geometry" />
        </mxCell>
        <mxCell id="_IIaCne2BPe6ufigTYPv-14" value="" style="curved=1;endArrow=classic;html=1;rounded=0;exitX=0;exitY=0;exitDx=0;exitDy=0;entryX=1;entryY=0.5;entryDx=0;entryDy=0;fillColor=#e1d5e7;strokeColor=#9673a6;dashed=1;" parent="1" source="_IIaCne2BPe6ufigTYPv-9" target="_IIaCne2BPe6ufigTYPv-13" edge="1">
          <mxGeometry width="50" height="50" relative="1" as="geometry">
            <mxPoint x="729" y="771" as="sourcePoint" />
            <mxPoint x="779" y="721" as="targetPoint" />
            <Array as="points">
              <mxPoint x="614" y="747" />
              <mxPoint x="478" y="754" />
              <mxPoint x="343" y="758" />
              <mxPoint x="356" y="414" />
            </Array>
          </mxGeometry>
        </mxCell>
        <mxCell id="_IIaCne2BPe6ufigTYPv-15" value="&lt;p style=&quot;margin: 0px; margin-top: 4px; text-align: center; text-decoration: underline;&quot;&gt;Scan Enum count&lt;/p&gt;&lt;hr&gt;&lt;p style=&quot;margin: 0px; margin-left: 8px;&quot;&gt;&lt;br&gt;&lt;/p&gt;&lt;p style=&quot;margin: 0px; margin-left: 8px;&quot;&gt;掃描計數&lt;/p&gt;" style="verticalAlign=middle;align=center;overflow=fill;fontSize=12;fontFamily=Helvetica;html=1;rounded=1;fontStyle=1;strokeWidth=3;fillColor=#E6FFCC;strokeOpacity=100;" parent="1" vertex="1">
          <mxGeometry x="480" y="907" width="111" height="90" as="geometry" />
        </mxCell>
        <mxCell id="_IIaCne2BPe6ufigTYPv-16" value="" style="edgeStyle=orthogonalEdgeStyle;strokeColor=#990000;strokeWidth=2;entryX=0.5;entryY=0;entryDx=0;entryDy=0;exitX=0;exitY=1;exitDx=0;exitDy=0;" parent="1" source="_IIaCne2BPe6ufigTYPv-9" target="_IIaCne2BPe6ufigTYPv-15" edge="1">
          <mxGeometry width="100" height="100" relative="1" as="geometry">
            <mxPoint x="651" y="1153" as="sourcePoint" />
            <mxPoint x="597" y="1133" as="targetPoint" />
          </mxGeometry>
        </mxCell>
        <mxCell id="_IIaCne2BPe6ufigTYPv-17" value="" style="edgeStyle=orthogonalEdgeStyle;strokeColor=#990000;strokeWidth=2;exitX=1;exitY=1;exitDx=0;exitDy=0;entryX=0.5;entryY=0;entryDx=0;entryDy=0;" parent="1" source="_IIaCne2BPe6ufigTYPv-9" target="_IIaCne2BPe6ufigTYPv-18" edge="1">
          <mxGeometry width="100" height="100" relative="1" as="geometry">
            <mxPoint x="790" y="1132.02" as="sourcePoint" />
            <mxPoint x="900" y="1045" as="targetPoint" />
          </mxGeometry>
        </mxCell>
        <mxCell id="_IIaCne2BPe6ufigTYPv-18" value="&lt;p style=&quot;margin: 0px; margin-top: 4px; text-align: center; text-decoration: underline;&quot;&gt;&lt;strong&gt;Execute log&lt;/strong&gt;&lt;/p&gt;&lt;p style=&quot;margin: 0px; margin-top: 4px; text-align: center; text-decoration: underline;&quot;&gt;&lt;strong&gt;&lt;br&gt;&lt;/strong&gt;&lt;/p&gt;&lt;p style=&quot;margin: 0px; margin-top: 4px; text-align: center; text-decoration: underline;&quot;&gt;&lt;strong&gt;&lt;br&gt;&lt;/strong&gt;&lt;/p&gt;&lt;p style=&quot;margin: 0px; margin-top: 4px; text-align: center; text-decoration: underline;&quot;&gt;&lt;strong&gt;&lt;br&gt;&lt;/strong&gt;&lt;/p&gt;&lt;hr&gt;&lt;p style=&quot;margin: 0px; margin-left: 8px;&quot;&gt;&lt;span style=&quot;background-color: transparent; color: light-dark(rgb(0, 0, 0), rgb(255, 255, 255));&quot;&gt;&lt;br&gt;&lt;/span&gt;&lt;/p&gt;&lt;p style=&quot;margin: 0px; margin-left: 8px;&quot;&gt;&lt;span style=&quot;background-color: transparent; color: light-dark(rgb(0, 0, 0), rgb(255, 255, 255));&quot;&gt;寫入執行紀錄並備註&lt;/span&gt;&lt;/p&gt;" style="verticalAlign=middle;align=center;overflow=fill;fontSize=12;fontFamily=Helvetica;html=1;rounded=1;fontStyle=1;strokeWidth=3;fillColor=#FFFFCC;strokeOpacity=100;strokeColor=default;" parent="1" vertex="1">
          <mxGeometry x="853.9" y="899" width="138" height="135" as="geometry" />
        </mxCell>
        <mxCell id="_IIaCne2BPe6ufigTYPv-19" value="false" style="text;spacingTop=-5;align=center" parent="1" vertex="1">
          <mxGeometry x="875" y="858" width="30.5" height="17" as="geometry" />
        </mxCell>
        <mxCell id="_IIaCne2BPe6ufigTYPv-20" value="&lt;p style=&quot;margin: 0px; margin-top: 4px; text-align: center; text-decoration: underline;&quot;&gt;Sort count thread&lt;/p&gt;&lt;hr&gt;&lt;p style=&quot;margin: 0px; margin-left: 8px;&quot;&gt;&lt;br&gt;&lt;/p&gt;&lt;p style=&quot;margin: 0px; margin-left: 8px;&quot;&gt;依裝置數量排程&lt;/p&gt;" style="verticalAlign=middle;align=center;overflow=fill;fontSize=12;fontFamily=Helvetica;html=1;rounded=1;fontStyle=1;strokeWidth=3;fillColor=#E6FFCC;strokeOpacity=100;" parent="1" vertex="1">
          <mxGeometry x="657.5" y="1248" width="110" height="90" as="geometry" />
        </mxCell>
        <mxCell id="_IIaCne2BPe6ufigTYPv-21" value="" style="edgeStyle=none;noEdgeStyle=1;strokeColor=#990000;strokeWidth=2;exitX=0.5;exitY=1;exitDx=0;exitDy=0;entryX=0;entryY=0.5;entryDx=0;entryDy=0;" parent="1" source="_IIaCne2BPe6ufigTYPv-15" target="_IIaCne2BPe6ufigTYPv-20" edge="1">
          <mxGeometry width="100" height="100" relative="1" as="geometry">
            <mxPoint x="634" y="1200" as="sourcePoint" />
            <mxPoint x="635" y="1251" as="targetPoint" />
            <Array as="points">
              <mxPoint x="540" y="1293" />
            </Array>
          </mxGeometry>
        </mxCell>
        <mxCell id="_IIaCne2BPe6ufigTYPv-22" value="" style="edgeStyle=none;noEdgeStyle=1;strokeColor=#990000;strokeWidth=2;exitX=0.5;exitY=1;exitDx=0;exitDy=0;entryX=0.5;entryY=0;entryDx=0;entryDy=0;" parent="1" source="_IIaCne2BPe6ufigTYPv-20" target="_IIaCne2BPe6ufigTYPv-3" edge="1">
          <mxGeometry width="100" height="100" relative="1" as="geometry">
            <mxPoint x="656" y="1355" as="sourcePoint" />
            <mxPoint x="657" y="1406" as="targetPoint" />
          </mxGeometry>
        </mxCell>
        <mxCell id="_IIaCne2BPe6ufigTYPv-23" value="" style="pointerEvents=1;shadow=0;dashed=0;html=1;strokeColor=none;fillColor=#4495D1;labelPosition=center;verticalLabelPosition=bottom;verticalAlign=top;align=center;outlineConnect=0;shape=mxgraph.veeam.cpu;" parent="1" vertex="1">
          <mxGeometry x="387.1" y="1400" width="44.8" height="44.8" as="geometry" />
        </mxCell>
        <mxCell id="_IIaCne2BPe6ufigTYPv-24" value="" style="points=[];aspect=fixed;html=1;align=center;shadow=0;dashed=0;fillColor=#FF6A00;strokeColor=none;shape=mxgraph.alibaba_cloud.logic_composer;movable=1;resizable=1;rotatable=1;deletable=1;editable=1;locked=0;connectable=1;" parent="1" vertex="1">
          <mxGeometry x="546.3" y="1410.3" width="53.7" height="53.4" as="geometry" />
        </mxCell>
        <mxCell id="_IIaCne2BPe6ufigTYPv-25" value="&lt;p style=&quot;font-weight: 700; text-wrap-mode: nowrap; margin: 4px 0px 0px;&quot;&gt;&lt;span style=&quot;text-wrap-mode: wrap; background-color: transparent; color: light-dark(rgb(0, 0, 0), rgb(255, 255, 255));&quot;&gt;&lt;br&gt;&lt;br&gt;Erase VIDPID&lt;/span&gt;&lt;/p&gt;" style="rhombus;whiteSpace=wrap;html=1;fillColor=#FFFFCC;strokeColor=default;strokeWidth=3;" parent="1" vertex="1">
          <mxGeometry x="858.4" y="1227.16" width="129" height="129" as="geometry" />
        </mxCell>
        <mxCell id="_IIaCne2BPe6ufigTYPv-26" value="" style="sketch=0;points=[[0,0,0],[0.25,0,0],[0.5,0,0],[0.75,0,0],[1,0,0],[0,1,0],[0.25,1,0],[0.5,1,0],[0.75,1,0],[1,1,0],[0,0.25,0],[0,0.5,0],[0,0.75,0],[1,0.25,0],[1,0.5,0],[1,0.75,0]];outlineConnect=0;fontColor=#232F3E;fillColor=none;strokeColor=#7F00FF;dashed=0;verticalLabelPosition=bottom;verticalAlign=top;align=center;html=1;fontSize=12;fontStyle=0;aspect=fixed;shape=mxgraph.aws4.resourceIcon;resIcon=mxgraph.aws4.clean_rooms;" parent="1" vertex="1">
          <mxGeometry x="899.85" y="1254.1000000000001" width="46.1" height="46.1" as="geometry" />
        </mxCell>
        <mxCell id="_IIaCne2BPe6ufigTYPv-27" value="" style="edgeStyle=elbowEdgeStyle;elbow=horizontal;strokeColor=#990000;strokeWidth=2;entryX=0;entryY=0.5;entryDx=0;entryDy=0;exitX=0.75;exitY=0;exitDx=0;exitDy=0;" parent="1" source="_IIaCne2BPe6ufigTYPv-3" target="_IIaCne2BPe6ufigTYPv-25" edge="1">
          <mxGeometry width="100" height="100" relative="1" as="geometry">
            <mxPoint x="914" y="1436.44" as="sourcePoint" />
            <mxPoint x="973" y="1433.9999999999998" as="targetPoint" />
            <Array as="points">
              <mxPoint x="812" y="1336" />
            </Array>
          </mxGeometry>
        </mxCell>
        <mxCell id="_IIaCne2BPe6ufigTYPv-28" value="" style="edgeStyle=elbowEdgeStyle;strokeColor=#990000;strokeWidth=2;exitX=0.5;exitY=0;exitDx=0;exitDy=0;entryX=0.5;entryY=1;entryDx=0;entryDy=0;elbow=vertical;" parent="1" source="_IIaCne2BPe6ufigTYPv-25" target="_IIaCne2BPe6ufigTYPv-18" edge="1">
          <mxGeometry width="100" height="100" relative="1" as="geometry">
            <mxPoint x="972" y="1350" as="sourcePoint" />
            <mxPoint x="1053" y="1294" as="targetPoint" />
          </mxGeometry>
        </mxCell>
        <mxCell id="_IIaCne2BPe6ufigTYPv-29" value="" style="edgeStyle=elbowEdgeStyle;elbow=horizontal;strokeColor=#990000;strokeWidth=2;dashed=1;dashPattern=8 8;entryX=0.5;entryY=0;entryDx=0;entryDy=0;exitX=1;exitY=0.5;exitDx=0;exitDy=0;" parent="1" source="_IIaCne2BPe6ufigTYPv-25" target="_IIaCne2BPe6ufigTYPv-39" edge="1">
          <mxGeometry width="100" height="100" relative="1" as="geometry">
            <mxPoint x="1039" y="1500" as="sourcePoint" />
            <mxPoint x="1039" y="1545" as="targetPoint" />
            <Array as="points">
              <mxPoint x="1011" y="1550" />
            </Array>
          </mxGeometry>
        </mxCell>
        <mxCell id="_IIaCne2BPe6ufigTYPv-30" value="" style="elbow=vertical;strokeColor=#990000;strokeWidth=2;exitX=0;exitY=0;exitDx=0;exitDy=0;entryX=0.5;entryY=1;entryDx=0;entryDy=0;" parent="1" source="_IIaCne2BPe6ufigTYPv-25" target="_IIaCne2BPe6ufigTYPv-9" edge="1">
          <mxGeometry width="100" height="100" relative="1" as="geometry">
            <mxPoint x="1052" y="1543" as="sourcePoint" />
            <mxPoint x="956" y="1435" as="targetPoint" />
          </mxGeometry>
        </mxCell>
        <mxCell id="_IIaCne2BPe6ufigTYPv-31" value="Success log" style="text;whiteSpace=wrap;" parent="1" vertex="1">
          <mxGeometry x="926.75" y="1129" width="70" height="26.67" as="geometry" />
        </mxCell>
        <mxCell id="_IIaCne2BPe6ufigTYPv-32" value="Fail log" style="text;whiteSpace=wrap;" parent="1" vertex="1">
          <mxGeometry x="1017" y="1418.1299999999997" width="45" height="26.67" as="geometry" />
        </mxCell>
        <mxCell id="_IIaCne2BPe6ufigTYPv-33" value="Fail == Return to start &#xa;&amp;&#xa;check reserve or not yet" style="text;whiteSpace=wrap;" parent="1" vertex="1">
          <mxGeometry x="664" y="1016" width="134" height="55" as="geometry" />
        </mxCell>
        <mxCell id="_IIaCne2BPe6ufigTYPv-34" value="" style="curved=1;endArrow=classic;html=1;rounded=0;entryX=0.5;entryY=1;entryDx=0;entryDy=0;fillColor=#e1d5e7;strokeColor=#9673a6;dashed=1;" parent="1" target="_IIaCne2BPe6ufigTYPv-33" edge="1">
          <mxGeometry width="50" height="50" relative="1" as="geometry">
            <mxPoint x="838" y="1142" as="sourcePoint" />
            <mxPoint x="929" y="1202" as="targetPoint" />
            <Array as="points">
              <mxPoint x="751" y="1122" />
            </Array>
          </mxGeometry>
        </mxCell>
        <mxCell id="_IIaCne2BPe6ufigTYPv-35" value="&#xa;&#xa;&#xa;Erase COMDB" style="whiteSpace=wrap;align=center;verticalAlign=middle;fontStyle=1;strokeWidth=3;fillColor=#FFFFCC" parent="1" vertex="1">
          <mxGeometry x="761" y="1540" width="101" height="90" as="geometry" />
        </mxCell>
        <mxCell id="_IIaCne2BPe6ufigTYPv-36" value="" style="fontColor=#0066CC;verticalAlign=top;verticalLabelPosition=bottom;labelPosition=center;align=center;html=1;outlineConnect=0;fillColor=#CCCCCC;strokeColor=#6881B3;gradientColor=none;gradientDirection=north;strokeWidth=2;shape=mxgraph.networks.usb_stick;" parent="1" vertex="1">
          <mxGeometry x="800" y="1548" width="23" height="50" as="geometry" />
        </mxCell>
        <mxCell id="_IIaCne2BPe6ufigTYPv-37" value="" style="edgeStyle=elbowEdgeStyle;elbow=vertical;strokeColor=#990000;strokeWidth=2;entryX=0.5;entryY=0;entryDx=0;entryDy=0;exitX=0.75;exitY=1;exitDx=0;exitDy=0;" parent="1" source="_IIaCne2BPe6ufigTYPv-3" target="_IIaCne2BPe6ufigTYPv-35" edge="1">
          <mxGeometry width="100" height="100" relative="1" as="geometry">
            <mxPoint x="710" y="1555" as="sourcePoint" />
            <mxPoint x="567" y="1499" as="targetPoint" />
          </mxGeometry>
        </mxCell>
        <mxCell id="_IIaCne2BPe6ufigTYPv-38" value="&lt;h1 style=&quot;margin-top: 0px;&quot;&gt;Log sample&lt;/h1&gt;&lt;p style=&quot;text-align: left;&quot;&gt;[2024-07-01 00:10:00] [START] EnumGuardian執行&lt;/p&gt;&lt;p style=&quot;text-align: left;&quot;&gt;[2024-07-01 00:10:01] 檢查排程設定：符合執行時間&lt;/p&gt;&lt;p style=&quot;text-align: left;&quot;&gt;[2024-07-01 00:10:02] 初次掃描結果：&lt;/p&gt;&lt;p style=&quot;text-align: left;&quot;&gt;&amp;nbsp; &amp;nbsp; [1] VID_05AC&amp;amp;PID_12A8 Count:1234&lt;/p&gt;&lt;p style=&quot;text-align: left;&quot;&gt;&amp;nbsp; &amp;nbsp; [2] VID_0CA6&amp;amp;PID_5050 Count:432&lt;/p&gt;&lt;p style=&quot;text-align: left;&quot;&gt;[2024-07-01 00:10:03] 處理 [1] VID_05AC&amp;amp;PID_12A8&lt;/p&gt;&lt;p style=&quot;text-align: left;&quot;&gt;&amp;nbsp; &amp;nbsp; &amp;nbsp; &amp;nbsp; - Ignore註冊表：成功&lt;/p&gt;&lt;p style=&quot;text-align: left;&quot;&gt;&amp;nbsp; &amp;nbsp; &amp;nbsp; &amp;nbsp; - ENUM清理：成功&lt;/p&gt;&lt;p style=&quot;text-align: left;&quot;&gt;[2024-07-01 00:10:05] 處理 [2] VID_0CA6&amp;amp;PID_5050&lt;/p&gt;&lt;p style=&quot;text-align: left;&quot;&gt;&amp;nbsp; &amp;nbsp; &amp;nbsp; &amp;nbsp; - Ignore註冊表：成功&lt;/p&gt;&lt;p style=&quot;text-align: left;&quot;&gt;&amp;nbsp; &amp;nbsp; &amp;nbsp; &amp;nbsp; - ENUM清理：失敗 (PermissionError)&lt;/p&gt;&lt;p style=&quot;text-align: left;&quot;&gt;[2024-07-01 00:10:06] 第二次掃描無需清理&lt;/p&gt;&lt;p style=&quot;text-align: left;&quot;&gt;[2024-07-01 00:10:07] COMDB清理：成功&lt;/p&gt;&lt;p style=&quot;text-align: left;&quot;&gt;[2024-07-01 00:10:08] [COMPLETE] 執行完成&lt;/p&gt;&lt;div style=&quot;text-align: left;&quot;&gt;&lt;br&gt;&lt;/div&gt;&lt;p&gt;&lt;/p&gt;" style="text;html=1;whiteSpace=wrap;overflow=hidden;rounded=0;align=center;fillColor=none;strokeColor=#0000FF;dashed=1;dashPattern=8 8;" parent="1" vertex="1">
          <mxGeometry x="1246" y="357" width="331" height="420" as="geometry" />
        </mxCell>
        <mxCell id="_IIaCne2BPe6ufigTYPv-39" value="&lt;p style=&quot;margin: 0px; margin-top: 4px; text-align: center; text-decoration: underline;&quot;&gt;Failed log&lt;/p&gt;&lt;p style=&quot;margin: 0px; margin-top: 4px; text-align: center; text-decoration: underline;&quot;&gt;&lt;strong&gt;&lt;br&gt;&lt;/strong&gt;&lt;/p&gt;&lt;p style=&quot;margin: 0px; margin-top: 4px; text-align: center; text-decoration: underline;&quot;&gt;&lt;strong&gt;&lt;br&gt;&lt;/strong&gt;&lt;/p&gt;&lt;p style=&quot;margin: 0px; margin-top: 4px; text-align: center; text-decoration: underline;&quot;&gt;&lt;strong&gt;&lt;br&gt;&lt;/strong&gt;&lt;/p&gt;&lt;hr&gt;&lt;p style=&quot;margin: 0px; margin-left: 8px;&quot;&gt;&lt;span style=&quot;background-color: transparent; color: light-dark(rgb(0, 0, 0), rgb(255, 255, 255));&quot;&gt;清理失敗寫入失敗清單JSON&lt;br&gt;並備註原因 便於查修&lt;/span&gt;&lt;br&gt;&lt;/p&gt;" style="verticalAlign=middle;align=center;overflow=fill;fontSize=12;fontFamily=Helvetica;html=1;rounded=1;fontStyle=1;strokeWidth=3;fillColor=#FFFFCC;strokeOpacity=100;strokeColor=default;" parent="1" vertex="1">
          <mxGeometry x="926.75" y="1537.87" width="167.5" height="137.25" as="geometry" />
        </mxCell>
        <mxCell id="_IIaCne2BPe6ufigTYPv-40" value="&lt;font&gt;failed_cleanup.json&lt;/font&gt;" style="html=1;whiteSpace=wrap;strokeColor=none;fillColor=#0079D6;labelPosition=center;verticalLabelPosition=middle;verticalAlign=top;align=center;fontSize=12;outlineConnect=0;spacingTop=-6;fontColor=#FFFFFF;sketch=0;shape=mxgraph.sitemap.log;" parent="1" vertex="1">
          <mxGeometry x="954.65" y="1564.12" width="111.7" height="45" as="geometry" />
        </mxCell>
        <mxCell id="_IIaCne2BPe6ufigTYPv-41" value="&lt;p style=&quot;margin: 0px; margin-top: 4px; text-align: center; text-decoration: underline;&quot;&gt;End&lt;/p&gt;&lt;hr&gt;&lt;p style=&quot;margin: 0px 0px 0px 8px;&quot;&gt;&lt;span style=&quot;background-color: transparent; color: light-dark(rgb(0, 0, 0), rgb(255, 255, 255));&quot;&gt;&lt;br&gt;結束/退出&lt;/span&gt;&lt;/p&gt;" style="verticalAlign=middle;align=center;overflow=fill;fontSize=12;fontFamily=Helvetica;html=1;rounded=1;fontStyle=1;strokeWidth=3;fillColor=#dae8fc;strokeColor=#6c8ebf;" parent="1" vertex="1">
          <mxGeometry x="657.5" y="1911" width="110" height="90" as="geometry" />
        </mxCell>
        <mxCell id="_IIaCne2BPe6ufigTYPv-42" value="" style="edgeStyle=none;noEdgeStyle=1;strokeColor=#990000;strokeWidth=2;exitX=0.5;exitY=1;exitDx=0;exitDy=0;entryX=0.5;entryY=0;entryDx=0;entryDy=0;" parent="1" source="_IIaCne2BPe6ufigTYPv-3" target="_IIaCne2BPe6ufigTYPv-41" edge="1">
          <mxGeometry width="100" height="100" relative="1" as="geometry">
            <mxPoint x="737" y="1553" as="sourcePoint" />
            <mxPoint x="736" y="1604" as="targetPoint" />
          </mxGeometry>
        </mxCell>
        <mxCell id="_IIaCne2BPe6ufigTYPv-43" value="Execute log.txt" style="html=1;whiteSpace=wrap;strokeColor=none;fillColor=#0079D6;labelPosition=center;verticalLabelPosition=middle;verticalAlign=top;align=center;fontSize=12;outlineConnect=0;spacingTop=-6;fontColor=#FFFFFF;sketch=0;shape=mxgraph.sitemap.log;" parent="1" vertex="1">
          <mxGeometry x="867.05" y="925" width="111.7" height="45" as="geometry" />
        </mxCell>
        <mxCell id="_IIaCne2BPe6ufigTYPv-44" value="" style="endArrow=classic;html=1;rounded=0;exitX=1;exitY=0.5;exitDx=0;exitDy=0;entryX=0;entryY=0.5;entryDx=0;entryDy=0;fillColor=#e1d5e7;strokeColor=#9673a6;dashed=1;edgeStyle=orthogonalEdgeStyle;elbow=vertical;curved=1;" parent="1" source="_IIaCne2BPe6ufigTYPv-18" target="_IIaCne2BPe6ufigTYPv-38" edge="1">
          <mxGeometry width="50" height="50" relative="1" as="geometry">
            <mxPoint x="1312" y="878" as="sourcePoint" />
            <mxPoint x="1158" y="688" as="targetPoint" />
            <Array as="points">
              <mxPoint x="1144" y="820" />
              <mxPoint x="1144" y="562" />
            </Array>
          </mxGeometry>
        </mxCell>
        <mxCell id="_IIaCne2BPe6ufigTYPv-45" value="Success" style="text;whiteSpace=wrap;" parent="1" vertex="1">
          <mxGeometry x="817" y="1492" width="51" height="26.67" as="geometry" />
        </mxCell>
        <mxCell id="_IIaCne2BPe6ufigTYPv-46" value="&lt;h1 style=&quot;margin-top: 0px;&quot;&gt;Trobleshooting&amp;nbsp; log&lt;/h1&gt;&lt;p style=&quot;&quot;&gt;&lt;span style=&quot;text-align: left;&quot;&gt;[&lt;/span&gt;&lt;br style=&quot;padding: 0px; margin: 0px; text-align: left;&quot;&gt;&lt;span style=&quot;text-align: left;&quot;&gt;&amp;nbsp; {&lt;/span&gt;&lt;br style=&quot;padding: 0px; margin: 0px; text-align: left;&quot;&gt;&lt;span style=&quot;text-align: left;&quot;&gt;&amp;nbsp; &amp;nbsp; &quot;vid_pid&quot;: &quot;0ca6a050&quot;,&lt;/span&gt;&lt;br style=&quot;padding: 0px; margin: 0px; text-align: left;&quot;&gt;&lt;span style=&quot;text-align: left;&quot;&gt;&amp;nbsp; &amp;nbsp; &quot;count&quot;: 432,&lt;/span&gt;&lt;br style=&quot;padding: 0px; margin: 0px; text-align: left;&quot;&gt;&lt;span style=&quot;text-align: left;&quot;&gt;&amp;nbsp; &amp;nbsp; &quot;error&quot;: &quot;PermissionError&quot;&lt;/span&gt;&lt;br style=&quot;padding: 0px; margin: 0px; text-align: left;&quot;&gt;&lt;span style=&quot;text-align: left;&quot;&gt;&amp;nbsp; }&lt;/span&gt;&lt;br style=&quot;padding: 0px; margin: 0px; text-align: left;&quot;&gt;&lt;span style=&quot;text-align: left;&quot;&gt;]&lt;/span&gt;&lt;/p&gt;&lt;p&gt;&lt;/p&gt;" style="text;html=1;whiteSpace=wrap;overflow=hidden;rounded=0;align=center;fillColor=none;strokeColor=#0000FF;dashed=1;dashPattern=8 8;" parent="1" vertex="1">
          <mxGeometry x="1246" y="1525" width="246.9" height="163" as="geometry" />
        </mxCell>
        <mxCell id="_IIaCne2BPe6ufigTYPv-47" value="" style="endArrow=classic;html=1;rounded=0;exitX=1;exitY=0.5;exitDx=0;exitDy=0;fillColor=#e1d5e7;strokeColor=#9673a6;dashed=1;elbow=vertical;entryX=0;entryY=0.5;entryDx=0;entryDy=0;" parent="1" source="_IIaCne2BPe6ufigTYPv-39" target="_IIaCne2BPe6ufigTYPv-46" edge="1">
          <mxGeometry width="50" height="50" relative="1" as="geometry">
            <mxPoint x="1241" y="1645" as="sourcePoint" />
            <mxPoint x="1166" y="1685" as="targetPoint" />
          </mxGeometry>
        </mxCell>
      </root>
    </mxGraphModel>
  </diagram>
</mxfile>
